<svg xmlns="http://www.w3.org/2000/svg" viewBox="0 0 944.49 324.26"><defs><style>.cls-1{fill:#58425f;}.cls-2{fill:#5b4362;}.cls-3{fill:#5d4462;}.cls-4{fill:#aa147f;}.cls-5,.cls-8{fill:none;stroke-miterlimit:10;stroke-width:5px;}.cls-5{stroke:#5a4462;}.cls-6{fill:#5a4462;}.cls-7{fill:#be1b8e;}.cls-8{stroke:#9a9371;}</style></defs><g id="Capa_2" data-name="Capa 2"><path class="cls-1" d="M405.08,25.35c2.33-2.07,3.67-3.47,4-4.19.43-1,1-1.52,1.84-1.52s1.32.76,1.4,2.29l1.4,22.14a9.7,9.7,0,0,1-.16,2.32c-.11.27-.41.41-.92.41q-1,0-2.16-2.73a43.27,43.27,0,0,0-11.67-16.56q-7.56-6.41-16.37-6.41a22.8,22.8,0,0,0-14.22,5q-6.47,5-10.06,14.21a54.34,54.34,0,0,0-3.58,19.83q0,18,9.93,29.29t22.19,11.26A24.83,24.83,0,0,0,402,95.4a35.81,35.81,0,0,0,10.54-12.18c.63-1.27,1.29-1.9,2-1.9.93,0,1.4.5,1.4,1.52q0,1.84-4.82,8.06A35.86,35.86,0,0,1,398.41,101a37.58,37.58,0,0,1-16.85,3.87,41.27,41.27,0,0,1-35.29-20.31q-5.58-9.51-5.59-22.33a47.05,47.05,0,0,1,5.43-22.66,38.87,38.87,0,0,1,15.28-15.67,40.67,40.67,0,0,1,20.32-5.58,39.88,39.88,0,0,1,11.43,1.74A55.25,55.25,0,0,1,405.08,25.35Z"/><path class="cls-1" d="M422.73,76.65A27.69,27.69,0,0,1,430.79,57a26.22,26.22,0,0,1,19.79-8.49,26.54,26.54,0,0,1,19,7.61,25.21,25.21,0,0,1,8,19,28.31,28.31,0,0,1-8.38,20.25q-8.37,8.72-19.54,8.71a25.76,25.76,0,0,1-19-8A26.6,26.6,0,0,1,422.73,76.65ZM433,76.27q0,10.91,5,18.13t12.47,7.22q6.78,0,12-6.78t5.17-18a32.54,32.54,0,0,0-5-17.84q-5-7.81-12.91-7.82-7.36,0-12.06,7.13T433,76.27Z"/><path class="cls-1" d="M502.23,48.83c1,2.5,1.63,6.7,1.84,12.63a29.72,29.72,0,0,1,8.73-9.33A18.8,18.8,0,0,1,523.23,49a22.2,22.2,0,0,1,8.35,1.62,12.09,12.09,0,0,1,6.22,5.57q2.18,4,2.18,13.47L539.6,91q0,5.89,1,7.38t4.22,2.38c1.48.42,2.22.88,2.22,1.39s-.36,1-1.08,1a8.85,8.85,0,0,1-.89,0,47.41,47.41,0,0,0-8.63-.58c-3.43,0-7.1.15-11,.44-1.56,0-2.35-.36-2.35-1.08,0-.5.43-.84,1.27-1a13.14,13.14,0,0,0,4.57-1.59,4.28,4.28,0,0,0,1.52-2.18q.45-1.36.73-9.16t.29-12.67q0-13.37-3.36-17.81A10.18,10.18,0,0,0,519.68,53q-7.42,0-12.34,8t-4.92,26.75c0,5.67.37,9.27,1.11,10.82s2.59,2.48,5.55,2.82c.93.09,1.4.49,1.4,1.21s-.46.88-1.39.88l-3.29-.25q-1.79-.13-11.71-.13l-5.06.13q-2.79,0-2.79-1t3-1.65c1.93-.38,3.23-1,3.9-2s1.12-4.12,1.35-9.49.35-12.1.35-20.14q0-11.25-1.52-14a6.47,6.47,0,0,0-4.25-3.37c-1.65-.38-2.48-.91-2.48-1.59s.64-1.07,1.91-1.07l5.13.06Q494.48,49,502.23,48.83Z"/><path class="cls-1" d="M575.33,54.48q-.9,14-.89,27.57,0,10.42,2.48,13.6a8.53,8.53,0,0,0,7.14,3.18,14.68,14.68,0,0,0,7.46-2.48,6,6,0,0,1,1.78-.88c.55,0,.82.29.82.88q0,1.53-4.51,4.83a18.36,18.36,0,0,1-11.07,3.3q-6.49,0-9.74-4.52T565.56,86.5q0-9.34,1.14-32-.45-.13-6-.45l-3.81-.25c-.93,0-1.39-.36-1.39-1s.52-1,1.58-1.33q2.6-.95,8.72-5.57t7.15-13c.17-1.48.65-2.22,1.43-2.22s1.17.59,1.17,1.77a10.12,10.12,0,0,1-.07,1.2c-.12,1.65-.19,3.55-.19,5.69l.07,9.87L589.22,49c2.37,0,3.6.27,3.68.82,0,1.95-.36,3.18-.95,3.68Q588.65,53.52,575.33,54.48Z"/><path class="cls-1" d="M632.62,95a20.5,20.5,0,0,1-7.42,6.76,20.81,20.81,0,0,1-9.77,2.25q-6.4,0-10.06-3.43a11.79,11.79,0,0,1-3.65-9,14.85,14.85,0,0,1,2.19-7.81,14.19,14.19,0,0,1,5-5.2,66.7,66.7,0,0,1,9.93-4Q629,71.22,631,69a8.23,8.23,0,0,0,2-5.78q0-5.67-2.67-8.82a9.33,9.33,0,0,0-7.55-3.15q-4,0-6,1.78c-1.35,1.24-2.39,3.64-3.1,7.21-.77,3.9-2.44,5.86-5,5.86a5.31,5.31,0,0,1-4.76-5.52c0-3.17,1.76-5.94,5.27-8.28s8.33-3.52,14.47-3.52q7.29,0,11.64,2.06t5.46,4.73q1.11,2.67,1.11,10.29l-.38,16.78q0,9.72,1.17,13.81c.78,2.74,2.23,4.1,4.35,4.1a11.13,11.13,0,0,0,1.77-.19l1.08-.13c1,0,1.46.36,1.46,1.06q0,2.43-12.5,2.43-3.62,0-4.85-1.68C633.16,100.91,632.71,98.57,632.62,95Zm0-24.74q-1.9,2.48-8.63,6t-9.58,6.54a10.86,10.86,0,0,0-2.92,7.61,10.13,10.13,0,0,0,2.38,6.79,7.5,7.5,0,0,0,5.94,2.79,11.87,11.87,0,0,0,6.91-2.25A13.57,13.57,0,0,0,631.51,92c1-2.33,1.56-5.77,1.56-10.34Q633.07,76.55,632.62,70.28Z"/><path class="cls-1" d="M707.05,16.28q.06,13.57.07,36.67l-.51,40.29q0,6.67,6.15,7.75c1.36.25,2,.69,2,1.33a.89.89,0,0,1-.73,1,83.24,83.24,0,0,1-8.4.19l-7.81-.13c-.13-2.58-.19-4.44-.19-5.58q0-2.16.19-6.16a27.56,27.56,0,0,1-7.8,9.52,16.15,16.15,0,0,1-9.71,3.18q-7.56,0-15.32-7.11T657.24,78a30.59,30.59,0,0,1,7.27-20.37Q671.77,49,682.37,49a18,18,0,0,1,9.2,2.25,16.62,16.62,0,0,1,6.28,6.82q.39-7.47.38-14.06,0-20.21-1-22.43t-4.76-2.66c-1.57-.21-2.35-.63-2.35-1.24s1-1.1,3-1.1Zm-8.94,56.85q0-10.78-3.65-16.15c-2.44-3.57-6.1-5.36-11-5.36a12.7,12.7,0,0,0-11.55,6.25Q668,64.13,668,76.62t4.6,18.08q4.61,5.46,10,5.46t10.44-5.74Q698.1,88.68,698.11,73.13Z"/><path class="cls-1" d="M723.23,76.65A27.73,27.73,0,0,1,731.29,57a26.23,26.23,0,0,1,19.8-8.49,26.56,26.56,0,0,1,19,7.61,25.2,25.2,0,0,1,8,19,28.34,28.34,0,0,1-8.37,20.25q-8.38,8.72-19.54,8.71a25.78,25.78,0,0,1-19-8A26.64,26.64,0,0,1,723.23,76.65Zm10.28-.38q0,10.91,5,18.13T751,101.62q6.79,0,12-6.78t5.18-18a32.54,32.54,0,0,0-5-17.84q-5-7.81-12.91-7.82-7.35,0-12,7.13T733.51,76.27Z"/><path class="cls-1" d="M804.77,63.06a35.37,35.37,0,0,1,8.53-10.67,15.22,15.22,0,0,1,9.55-3.56,8.25,8.25,0,0,1,6,2.51A7.79,7.79,0,0,1,831.42,57c0,4-1.72,6-5.14,6q-2.41,0-4.06-3.36-2-4.24-5.4-4.25c-2.11,0-4.29,1.18-6.53,3.56a18.06,18.06,0,0,0-4.51,7.78q-1.14,4.23-1.14,17.7c0,8.21.34,12.93,1,14.13s2.41,2,5.2,2.32c.76.09,1.14.38,1.14.89,0,.89-1,1.33-3,1.33H788.78q-2.16,0-2.16-1.08c0-.67,1-1,2.86-1.14,2.66-.17,4.31-1,4.94-2.48s1-6.94,1-16.39q0-20.77-.86-25t-6.38-4.44c-1.52-.09-2.28-.49-2.28-1.21a1,1,0,0,1,.47-.86q.48-.28,5.81-.6l11.68-.63Q804.26,52.76,804.77,63.06Z"/><path class="cls-1" d="M848.87,73.51c-.17,2.16-.26,3.87-.26,5.14a22.65,22.65,0,0,0,5.31,15.23,16.59,16.59,0,0,0,13.13,6.22q7.63,0,14.18-6.09c1.27-1.15,2.08-1.72,2.42-1.72q1,0,1.08,1.65a19,19,0,0,1-8.25,7.49,27.7,27.7,0,0,1-13,3,23.8,23.8,0,0,1-17.84-7.59q-7.29-7.58-7.3-19.19,0-12.44,8-20.75t17.16-8.31q8.57,0,15.48,6.5t6.92,15.26a3.73,3.73,0,0,1-.41,2q-.42.63-4.86.63Zm0-3.3q8.26.39,16,.38l3.37-.19a11.09,11.09,0,0,0,5.85-1.49q2-1.36,2-4.79a13.25,13.25,0,0,0-3.66-9.29,11.34,11.34,0,0,0-8.61-4q-4.59,0-9.13,4.54T848.87,70.21Z"/><path class="cls-1" d="M934.65,86.36A17,17,0,0,1,929.2,99a17.92,17.92,0,0,1-12.91,5.29q-4.44,0-10.58-2.86a17.36,17.36,0,0,0-4-1.52,2.3,2.3,0,0,0-1.9,1.33c-.69,1.18-1.34,1.78-2,1.78s-.84-.61-1-1.81-.21-3.95-.26-8.22q-.06-5.52-.19-7.11c0-1.56.42-2.34,1.24-2.34q.72,0,1.11,1.2A35.63,35.63,0,0,0,905.72,97a13.55,13.55,0,0,0,10.45,5,11.67,11.67,0,0,0,7.52-2.63A8.65,8.65,0,0,0,927,92.29q0-7-12.09-12.37a111.63,111.63,0,0,1-11.08-5.43,12.16,12.16,0,0,1-4.37-4.63,13.21,13.21,0,0,1-1.58-6.36,14.05,14.05,0,0,1,5-11,17.4,17.4,0,0,1,12-4.42,25.1,25.1,0,0,1,11.44,3.24,4.06,4.06,0,0,0,1.78.5c.42,0,.89-.34,1.4-1s.88-1,1.17-1a1,1,0,0,1,.87.48q.3.48.69,5.61t.38,8.44c0,1.36-.36,2-1.08,2s-1.14-.61-1.52-1.83a46.85,46.85,0,0,0-3.05-6.51q-2.53-4.8-5.55-6.13a14.72,14.72,0,0,0-5.93-1.32,12.07,12.07,0,0,0-7.49,2.21,7.17,7.17,0,0,0-1.71,9.76,13.17,13.17,0,0,0,2.25,2.66c.7.59,4.72,2.54,12.09,5.86a52.71,52.71,0,0,1,9,4.78,13.36,13.36,0,0,1,3.61,4.53A12.92,12.92,0,0,1,934.65,86.36Z"/><path class="cls-2" d="M379.13,129q10.31,22.33,19.17,39.47Q409,188.92,415,202.49a237.72,237.72,0,0,0,13.92,26.82q21.11-35,49-100.35l40.56.11c1.43.21,2.14.84,2.14,1.88s-.81,1.64-2.44,1.78q-10.8.93-14.42,4.33t-4.49,11.47q-.85,8-1.68,30T496.71,215q0,28,.41,32.66a10.77,10.77,0,0,0,3.46,7.39q3.06,2.75,11.92,4c1.7.28,2.55.92,2.55,1.94s-1,1.53-3.16,1.53l-39.64-.1H461.86c-2.31,0-3.46-.55-3.46-1.63s.78-1.53,2.34-1.74q8.56-1.11,11.36-3.16t4.18-7.29q1.38-5.25,1.37-26.16l1.94-48.94,1-24.17c0-1.84-.27-2.76-.82-2.76-.81,0-1.49.55-2,1.64L457.56,188q-19.38,38.24-23.77,49l-6.32,15.39q-3,7-3.57,7.7a1.87,1.87,0,0,1-1.43.67c-.81,0-1.49-.89-2-2.65q-1.83-6.33-18.86-40.18-8.88-19.08-21.27-43.55T366.89,148.8c-.68-.71-1.19-1.07-1.52-1.07-.69,0-1,.85-1,2.54L363.22,212l-.3,20.37q0,16.2,4.43,21.19c3,3.33,7.18,5,12.69,5q5.29,0,5.3,2.24c0,1.09-.85,1.63-2.55,1.63l-2.14-.1-6.63.1-14.36-.1q-9.37,0-24.15,1c-.82-.55-1.22-1.09-1.22-1.63,0-1.36,1.18-2.08,3.56-2.14q10.18-.32,15-6.73t4.79-28.76l-.2-18,1.42-45.48q0-15.92-4.68-21.78t-13.76-7c-2.58-.33-3.87-1-3.87-2.09s1-1.78,2.85-1.78c1,0,2.24,0,3.67.1Z"/><path class="cls-2" d="M637.42,137.42q5.61-5,6.43-6.72c.68-1.63,1.66-2.45,2.95-2.45s2.11,1.22,2.24,3.67l2.25,35.56a14.88,14.88,0,0,1-.26,3.72c-.17.44-.66.66-1.48.66-1.08,0-2.24-1.46-3.46-4.38a69.33,69.33,0,0,0-18.75-26.59q-12.12-10.3-26.29-10.3a36.59,36.59,0,0,0-22.82,8q-10.4,8-16.15,22.83a87.15,87.15,0,0,0-5.76,31.84q0,28.94,15.95,47t35.62,18.08a40,40,0,0,0,24.57-8.45,57.5,57.5,0,0,0,16.92-19.57c1-2,2.07-3.06,3.15-3.06,1.5,0,2.25.82,2.25,2.45q0,3-7.75,12.94a57.25,57.25,0,0,1-20.33,16.2,60.2,60.2,0,0,1-27.06,6.22A66.2,66.2,0,0,1,543,232.49q-9-15.28-9-35.87,0-20.18,8.72-36.37a62.25,62.25,0,0,1,24.53-25.17,65.32,65.32,0,0,1,32.64-9,64,64,0,0,1,18.36,2.8A89,89,0,0,1,637.42,137.42Z"/><path class="cls-3" d="M363.87,286.18h5.25l5.35,14.74,1.07,3.24.89,2.61h.17c.48-1.42.78-2.33.89-2.75l1-3.1,5.26-14.74H389v29h-4.19V300.75c0-1.6.17-4.24.49-7.93l.09-1h-.18l-2.31,6.69-5.12,13.86H375l-5.12-13.86-2.32-6.69h-.18l.09,1q.5,5.54.49,7.93v14.43h-4.09Z"/><path class="cls-3" d="M396.83,314a6.06,6.06,0,0,1-1.79-4.59,6,6,0,0,1,3.12-5.38q3.12-1.87,9.93-2.63-.09-4.79-4.18-4.78a12.2,12.2,0,0,0-6.28,2.21l-1.7-3a16.3,16.3,0,0,1,8.78-2.83c2.64,0,4.62.79,5.92,2.37s2,3.84,2,6.79v13H408.9l-.36-2.48h-.13q-3.62,3-7,3A6.43,6.43,0,0,1,396.83,314Zm8.59-2.46a12.88,12.88,0,0,0,2.67-1.95v-5.36a18.13,18.13,0,0,0-6.7,1.78,3.53,3.53,0,0,0-2,3.09,2.78,2.78,0,0,0,.93,2.28,3.8,3.8,0,0,0,2.5.78A5.58,5.58,0,0,0,405.42,311.55Z"/><path class="cls-3" d="M419.05,293.53h3.7l.35,3.9h.14a9.88,9.88,0,0,1,2.78-3.26,6,6,0,0,1,5.81-.73l-.8,3.9a7.67,7.67,0,0,0-2.18-.36,4.67,4.67,0,0,0-2.9,1.13,8.46,8.46,0,0,0-2.4,3.57v13.5h-4.5Z"/><path class="cls-3" d="M435.89,308.14v-11h-3.17v-3.37l3.39-.22.53-6h3.74v6h5.71v3.59h-5.71v11a5,5,0,0,0,.76,3,2.89,2.89,0,0,0,2.45,1,6.4,6.4,0,0,0,2.36-.53l.8,3.32a13.5,13.5,0,0,1-4.27.8Q435.88,315.71,435.89,308.14Z"/><path class="cls-3" d="M450.49,287.6,457,280l3.12,3-7.3,6.82Zm.32,5.93h4.5v21.65h-4.5Z"/><path class="cls-3" d="M462.16,293.53h3.7l.36,3h.13a16.16,16.16,0,0,1,3.45-2.61,7.8,7.8,0,0,1,3.77-.93q6.68,0,6.68,8.54v13.64h-4.5V302.12a7.19,7.19,0,0,0-.87-4,3.2,3.2,0,0,0-2.83-1.24,5.06,5.06,0,0,0-2.63.69,15.1,15.1,0,0,0-2.76,2.28v15.36h-4.5Z"/><path class="cls-3" d="M503.94,305.53H489.56a7.23,7.23,0,0,0,2.24,5,6.86,6.86,0,0,0,4.7,1.7,9.62,9.62,0,0,0,5.21-1.63l1.56,2.83a13.09,13.09,0,0,1-7.35,2.3,10.71,10.71,0,0,1-5.38-1.37,9.84,9.84,0,0,1-3.81-3.94,13.51,13.51,0,0,1,0-12,10.29,10.29,0,0,1,3.67-4,9.13,9.13,0,0,1,4.86-1.39,8,8,0,0,1,6.54,2.77,11.21,11.21,0,0,1,2.32,7.46A13.85,13.85,0,0,1,503.94,305.53Zm-3.74-3.1a6.82,6.82,0,0,0-1.25-4.38,4.33,4.33,0,0,0-3.6-1.55,5.21,5.21,0,0,0-3.66,1.5,7.42,7.42,0,0,0-2.05,4.43Z"/><path class="cls-3" d="M507.15,312.79l10.78-15.67h-9.58v-3.59h15.23v2.39l-10.77,15.67h11.13v3.59H507.15Z"/><path class="cls-3" d="M542.51,313.94a12.21,12.21,0,0,1-4.63-5.16,17.74,17.74,0,0,1-1.69-8,17.46,17.46,0,0,1,1.74-8,12.71,12.71,0,0,1,4.74-5.24,12.55,12.55,0,0,1,6.7-1.84,10.58,10.58,0,0,1,4.66,1,11.78,11.78,0,0,1,3.58,2.61l-2.45,2.92a7.77,7.77,0,0,0-5.7-2.61,7.62,7.62,0,0,0-4.47,1.35,8.87,8.87,0,0,0-3,3.83,14.36,14.36,0,0,0-1.09,5.84q0,5.19,2.29,8.17a7.39,7.39,0,0,0,6.17,3,8.5,8.5,0,0,0,6.46-3.1l2.45,2.83a11.47,11.47,0,0,1-9.09,4.21A12.64,12.64,0,0,1,542.51,313.94Z"/><path class="cls-3" d="M563.49,314a6.06,6.06,0,0,1-1.78-4.59,6,6,0,0,1,3.12-5.38q3.12-1.87,9.93-2.63c-.06-3.19-1.45-4.78-4.19-4.78a12.23,12.23,0,0,0-6.28,2.21l-1.69-3a16.28,16.28,0,0,1,8.78-2.83q4,0,5.92,2.37t2,6.79v13h-3.7l-.35-2.48h-.14q-3.6,3-7,3A6.45,6.45,0,0,1,563.49,314Zm8.6-2.46a12.88,12.88,0,0,0,2.67-1.95v-5.36a18.07,18.07,0,0,0-6.7,1.78,3.53,3.53,0,0,0-2,3.09,2.78,2.78,0,0,0,.93,2.28,3.77,3.77,0,0,0,2.49.78A5.62,5.62,0,0,0,572.09,311.55Z"/><path class="cls-3" d="M585.72,293.53h3.69l.36,3.9h.13a9.79,9.79,0,0,1,2.79-3.26,6,6,0,0,1,5.81-.73l-.8,3.9a7.67,7.67,0,0,0-2.18-.36,4.67,4.67,0,0,0-2.9,1.13,8.56,8.56,0,0,0-2.41,3.57v13.5h-4.49Z"/><path class="cls-3" d="M601.84,293.53h3.7l.35,3.9H606a9.88,9.88,0,0,1,2.78-3.26,6,6,0,0,1,5.81-.73l-.8,3.9a7.67,7.67,0,0,0-2.18-.36,4.67,4.67,0,0,0-2.9,1.13,8.46,8.46,0,0,0-2.4,3.57v13.5h-4.5Z"/><path class="cls-3" d="M634.62,305.53H620.23a7.28,7.28,0,0,0,2.25,5,6.86,6.86,0,0,0,4.7,1.7,9.65,9.65,0,0,0,5.21-1.63l1.56,2.83a13.09,13.09,0,0,1-7.35,2.3,10.75,10.75,0,0,1-5.39-1.37,9.88,9.88,0,0,1-3.8-3.94,13.51,13.51,0,0,1,0-12,10.29,10.29,0,0,1,3.67-4,9.1,9.1,0,0,1,4.86-1.39,8,8,0,0,1,6.54,2.77,11.21,11.21,0,0,1,2.32,7.46A13.85,13.85,0,0,1,634.62,305.53Zm-3.74-3.1a6.82,6.82,0,0,0-1.25-4.38A4.34,4.34,0,0,0,626,296.5a5.21,5.21,0,0,0-3.65,1.5,7.42,7.42,0,0,0-2,4.43Z"/><path class="cls-3" d="M639.88,293.53h3.69l.36,3h.13a16,16,0,0,1,3.46-2.61,7.73,7.73,0,0,1,3.76-.93q6.68,0,6.68,8.54v13.64h-4.5V302.12a7.19,7.19,0,0,0-.87-4,3.2,3.2,0,0,0-2.83-1.24,5,5,0,0,0-2.62.69,14.78,14.78,0,0,0-2.77,2.28v15.36h-4.49ZM651,289.17a13.49,13.49,0,0,1-1.94-1.53,13.28,13.28,0,0,0-1.27-1.06,1.79,1.79,0,0,0-1-.35c-1.13,0-1.77,1.06-1.91,3.18l-2.94-.17a8,8,0,0,1,1.29-4.56,4.07,4.07,0,0,1,3.52-1.64,3.76,3.76,0,0,1,2,.53,10.42,10.42,0,0,1,1.85,1.51,14.45,14.45,0,0,0,1.33,1.08,1.9,1.9,0,0,0,1.07.33c1.1,0,1.72-1.06,1.87-3.19l2.94.18a8.1,8.1,0,0,1-1.27,4.56,4,4,0,0,1-3.49,1.64A3.64,3.64,0,0,1,651,289.17Z"/><path class="cls-3" d="M668.2,314.34a10.06,10.06,0,0,1-3.76-3.94,13.75,13.75,0,0,1,0-12.09,10.08,10.08,0,0,1,3.74-3.94,10,10,0,0,1,13.94,3.94,13.66,13.66,0,0,1,0,12.09,10,10,0,0,1-13.92,3.94Zm9.18-4.41a10.95,10.95,0,0,0,0-11.13,5,5,0,0,0-8.15,0,10.92,10.92,0,0,0,0,11.13,5,5,0,0,0,8.2,0Z"/><path class="cls-3" d="M696,323.81l.85-3.49a6.06,6.06,0,0,0,1.6.3q3.21,0,4.59-4.11l.44-1.46-8.64-21.52h4.59l4,11.2,1.34,4,.67,2.08h.18c.32-1.06.58-2,.75-2.74l1-3.37,3.52-11.2h4.37l-8,23a15.7,15.7,0,0,1-3.34,5.78,7.05,7.05,0,0,1-5.21,2A8,8,0,0,1,696,323.81Z"/><path class="cls-3" d="M742.05,306.9H731.89l-2.49,8.28h-4.63l9.66-29h5.26l9.66,29h-4.81ZM741,303.31l-1.16-3.89q-.62-2.09-1.4-4.83c-.52-1.83-.9-3.15-1.14-4a3.75,3.75,0,0,0-.22-.84h-.18q-1.43,5.44-2.71,9.65L733,303.31Z"/><path class="cls-3" d="M755.23,314.87a14.13,14.13,0,0,1-3.83-2.17l2.14-2.88a14.71,14.71,0,0,0,3,1.84,7.76,7.76,0,0,0,3.16.64,4.31,4.31,0,0,0,2.85-.82,2.61,2.61,0,0,0,1-2.1,2.37,2.37,0,0,0-1.2-2.1,19.1,19.1,0,0,0-3.61-1.66,15.8,15.8,0,0,1-4.59-2.46,4.72,4.72,0,0,1-1.69-3.83,5.71,5.71,0,0,1,2.09-4.56,8.49,8.49,0,0,1,5.66-1.77,11.16,11.16,0,0,1,7,2.52l-2.1,2.79a11.32,11.32,0,0,0-2.4-1.41,6.16,6.16,0,0,0-2.45-.49,4.08,4.08,0,0,0-2.65.75,2.4,2.4,0,0,0-.91,1.95,2,2,0,0,0,.62,1.48,4.73,4.73,0,0,0,1.45,1c.55.24,1.42.58,2.6,1A22.27,22.27,0,0,1,764.7,304a7,7,0,0,1,2.22,2,5.17,5.17,0,0,1,.92,3.14,6,6,0,0,1-1,3.35,6.62,6.62,0,0,1-2.83,2.37,10.33,10.33,0,0,1-4.45.88A12.1,12.1,0,0,1,755.23,314.87Z"/><path class="cls-3" d="M776.3,314.34a10,10,0,0,1-3.76-3.94,13.66,13.66,0,0,1,0-12.09,10,10,0,0,1,17.68,0,13.75,13.75,0,0,1,0,12.09,10,10,0,0,1-13.92,3.94Zm9.17-4.41a10.89,10.89,0,0,0,0-11.13,5,5,0,0,0-8.15,0,10.89,10.89,0,0,0,0,11.13,5,5,0,0,0,8.19,0Z"/><path class="cls-3" d="M800.53,314.36a9.46,9.46,0,0,1-3.72-3.92,12.72,12.72,0,0,1-1.36-6.06,12,12,0,0,1,1.47-6.07,10.3,10.3,0,0,1,3.92-3.94,10.79,10.79,0,0,1,5.35-1.37,9.36,9.36,0,0,1,6.36,2.48l-2.22,2.92a8.54,8.54,0,0,0-1.92-1.28,4.54,4.54,0,0,0-2-.45,5.66,5.66,0,0,0-4.57,2.13,9.77,9.77,0,0,0,0,11.13,5.47,5.47,0,0,0,4.47,2.11,7.26,7.26,0,0,0,4.77-2l1.87,3a10,10,0,0,1-3.32,2,10.64,10.64,0,0,1-3.76.69A10.47,10.47,0,0,1,800.53,314.36Z"/><path class="cls-3" d="M817.7,288.71a2.61,2.61,0,0,1-.78-1.95,2.56,2.56,0,0,1,.78-1.91,3,3,0,0,1,4,0,2.56,2.56,0,0,1,.78,1.91,2.61,2.61,0,0,1-.78,1.95,3,3,0,0,1-4,0Zm-.29,4.82h4.5v21.65h-4.5Z"/><path class="cls-3" d="M829.3,314a6.06,6.06,0,0,1-1.78-4.59,6,6,0,0,1,3.12-5.38c2.07-1.25,5.39-2.13,9.93-2.63q-.09-4.79-4.19-4.78a12.23,12.23,0,0,0-6.28,2.21l-1.69-3a16.27,16.27,0,0,1,8.77-2.83c2.65,0,4.62.79,5.93,2.37s2,3.84,2,6.79v13h-3.7L841,312.7h-.13q-3.6,3-7,3A6.45,6.45,0,0,1,829.3,314Zm8.6-2.46a12.88,12.88,0,0,0,2.67-1.95v-5.36a18.07,18.07,0,0,0-6.7,1.78,3.53,3.53,0,0,0-2,3.09,2.79,2.79,0,0,0,.94,2.28,3.75,3.75,0,0,0,2.49.78A5.62,5.62,0,0,0,837.9,311.55Z"/><path class="cls-3" d="M852.53,312.7q-2.43-3-2.43-8.32a13.28,13.28,0,0,1,1.29-6,9.92,9.92,0,0,1,3.43-4,8.26,8.26,0,0,1,4.59-1.39,7.41,7.41,0,0,1,3.07.6,12.38,12.38,0,0,1,2.81,1.83l-.18-3.58v-8.06h4.5v31.39h-3.7l-.35-2.43h-.14a11.33,11.33,0,0,1-3,2.14,7.49,7.49,0,0,1-3.39.82A7.93,7.93,0,0,1,852.53,312.7Zm10.17-1.35a8.78,8.78,0,0,0,2.41-2V298.71a7.09,7.09,0,0,0-4.81-2,4.68,4.68,0,0,0-2.83.93,6.16,6.16,0,0,0-2,2.65,10.28,10.28,0,0,0-.74,4,9.81,9.81,0,0,0,1.4,5.67,4.6,4.6,0,0,0,4,2A5.36,5.36,0,0,0,862.7,311.35Z"/><path class="cls-3" d="M880.12,314.34a10,10,0,0,1-3.76-3.94,13.66,13.66,0,0,1,0-12.09,10,10,0,0,1,17.68,0,13.75,13.75,0,0,1,0,12.09,10,10,0,0,1-13.92,3.94Zm9.17-4.41a10.89,10.89,0,0,0,0-11.13,5,5,0,0,0-8.15,0,10.89,10.89,0,0,0,0,11.13,5,5,0,0,0,8.19,0Z"/><path class="cls-3" d="M902.21,314.87a14.13,14.13,0,0,1-3.83-2.17l2.14-2.88a14.71,14.71,0,0,0,3,1.84,7.76,7.76,0,0,0,3.16.64,4.31,4.31,0,0,0,2.85-.82,2.61,2.61,0,0,0,1-2.1,2.37,2.37,0,0,0-1.2-2.1,19.1,19.1,0,0,0-3.61-1.66,15.8,15.8,0,0,1-4.59-2.46,4.69,4.69,0,0,1-1.69-3.83,5.71,5.71,0,0,1,2.09-4.56A8.49,8.49,0,0,1,907.2,293a11.16,11.16,0,0,1,7,2.52l-2.1,2.79a11.32,11.32,0,0,0-2.4-1.41,6.16,6.16,0,0,0-2.45-.49,4.08,4.08,0,0,0-2.65.75,2.4,2.4,0,0,0-.91,1.95,2,2,0,0,0,.62,1.48,4.62,4.62,0,0,0,1.45,1c.55.24,1.41.58,2.6,1a22.27,22.27,0,0,1,3.28,1.44,7.08,7.08,0,0,1,2.22,2,5.17,5.17,0,0,1,.92,3.14,6,6,0,0,1-1,3.35,6.62,6.62,0,0,1-2.83,2.37,10.33,10.33,0,0,1-4.45.88A12.1,12.1,0,0,1,902.21,314.87Z"/><path class="cls-2" d="M871.87,127h4.71Q888,150.36,908,206.81,920.9,243,925.69,251.18t15.43,9.12c2.24.21,3.37,1,3.37,2.24,0,1-.58,1.43-1.73,1.43l-1.43-.1q-9.37-.81-23.84-.82-22.23,0-28.54.72c-2.1,0-3.16-.61-3.16-1.84,0-.88.79-1.42,2.35-1.63q8.65-.81,12-2.95t3.31-6.73q0-4.38-6.2-21.9l-6-17.53q-5.3,0-47.38.61Q833.21,240,833.22,247.4a10,10,0,0,0,5.24,9.27A23.68,23.68,0,0,0,848.81,260q3.77.3,3.77,2.28c0,.53-.41,1-1.23,1.49q-16.3-.72-19.66-.72-17.12,0-23,.41c-2.18,0-3.26-.61-3.26-1.83s1-1.77,2.85-2q11.71-1.53,17.94-15.9T845.56,192Q857.59,158.1,871.87,127Zm-4.06,22.22q-9.49,19.35-22.14,56.24,10.49-.51,15.08-.51l28.63.51q-3.76-10.59-10.58-28.12Q870.46,156.47,867.81,149.24Z"/><path class="cls-4" d="M758.2,231.52q9.27,17.73,14.27,21.7t10,4q6.74,0,12.94-5.5a2,2,0,0,1,1.23-.71,1.8,1.8,0,0,1,2,2q0,1.93-9.27,7.74t-18.44,5.81a17.57,17.57,0,0,1-10.24-3.31q-4.74-3.31-13.61-18.8-22.82,22.11-43.81,22.11-14.37,0-24.25-8.76a28.19,28.19,0,0,1-9.89-22,35.88,35.88,0,0,1,8.05-22.68q8.05-10.23,27.21-22.46Q686,172.42,686,158.66q0-11.61,8.25-18.85a27.93,27.93,0,0,1,18.95-7.24,26.07,26.07,0,0,1,16.92,6.07,19.45,19.45,0,0,1,7.44,15.84q0,13.16-18.14,28.64,23.94,19.66,36.48,43.91Q769,206.66,769,195.34a10.9,10.9,0,0,0-3.21-8.2q-3.21-3.1-8.91-3.11-5,0-5-1.83a1.89,1.89,0,0,1,2.14-2.14l17.94.71,24-.2c1.91,0,2.86.64,2.86,1.93s-1.23,1.84-3.67,1.84a17.76,17.76,0,0,0-12.53,5.4q-5.2,5.19-12.33,20.58Q763.49,225.09,758.2,231.52ZM707.76,194a67.12,67.12,0,0,0-16.35,14.47q-6,7.63-6,18.64,0,12.65,8.15,21.25T712.55,257q15.69,0,32.3-16.71Q736.49,225.1,730.13,217T707.76,194Zm8.15-14.27Q729,168.25,729,156a18.59,18.59,0,0,0-5.1-13,15.72,15.72,0,0,0-11.92-5.55,12.68,12.68,0,0,0-10.29,4.68,16.63,16.63,0,0,0-3.87,10.91Q697.78,165.08,715.91,179.75Z"/></g><g id="Capa_3" data-name="Capa 3"><line class="cls-5" x1="4.73" y1="104.96" x2="285.97" y2="104.96"/><line class="cls-5" x1="5.68" y1="204.28" x2="286.91" y2="204.28"/></g><g id="Capa_5" data-name="Capa 5"><ellipse class="cls-6" cx="70.53" cy="201.55" rx="36.36" ry="32.51" transform="translate(-136.89 252.26) rotate(-84.45)"/><ellipse class="cls-6" cx="141.56" cy="201.55" rx="36.36" ry="32.51" transform="translate(-72.73 322.96) rotate(-84.45)"/><ellipse class="cls-6" cx="211.02" cy="201.55" rx="36.36" ry="32.51" transform="translate(-9.99 392.09) rotate(-84.45)"/><ellipse class="cls-7" cx="67.22" cy="102.85" rx="36.36" ry="32.51" transform="translate(-41.65 159.81) rotate(-84.45)"/><ellipse class="cls-7" cx="140.86" cy="102.99" rx="36.36" ry="32.51" transform="translate(24.73 233.23) rotate(-84.45)"/></g><g id="Capa_4" data-name="Capa 4"><rect class="cls-8" x="2.5" y="13.66" width="287.29" height="307.02"/></g></svg>